<svg width="52" height="52" viewBox="0 0 52 52" fill="none" xmlns="http://www.w3.org/2000/svg">
<path d="M26 52C40.3594 52 52 40.3594 52 26C52 11.6406 40.3594 0 26 0C11.6406 0 0 11.6406 0 26C0 40.3594 11.6406 52 26 52Z" fill="url(#paint0_radial_192_3792)"/>
<path d="M26 52C40.3594 52 52 40.3594 52 26C52 11.6406 40.3594 0 26 0C11.6406 0 0 11.6406 0 26C0 40.3594 11.6406 52 26 52Z" fill="url(#paint1_radial_192_3792)" style="mix-blend-mode:multiply"/>
<g clip-path="url(#clip0_192_3792)">
<path d="M31.2013 12C26.3436 12 22.4025 15.9235 22.4025 20.7596H40C40 15.9235 36.059 12 31.2013 12Z" fill="#D2506A"/>
<path d="M13 20.7869C13 25.623 16.941 29.5464 21.7987 29.5464V12.0273C16.941 12.0273 13 15.9454 13 20.7869Z" fill="#D2506A"/>
<path d="M21.7987 39C26.6564 39 30.5975 35.0765 30.5975 30.2404H13C13 35.0765 16.941 39 21.7987 39Z" fill="#D2506A"/>
<path d="M40 30.2131C40 25.3771 36.059 21.4536 31.2013 21.4536V38.9727C36.059 38.9727 40 35.0492 40 30.2131Z" fill="#D2506A"/>
</g>
<defs>
<radialGradient id="paint0_radial_192_3792" cx="0" cy="0" r="1" gradientUnits="userSpaceOnUse" gradientTransform="translate(17.1515 20.9387) rotate(154.12) scale(37.3432)">
<stop offset="0.6" stop-color="#EFEFEF"/>
<stop offset="0.82" stop-color="#F1F1F1"/>
<stop offset="0.95" stop-color="#F9F9F9"/>
<stop offset="1" stop-color="white"/>
</radialGradient>
<radialGradient id="paint1_radial_192_3792" cx="0" cy="0" r="1" gradientUnits="userSpaceOnUse" gradientTransform="translate(31.7489 34.4128) scale(37.3432)">
<stop offset="0.59" stop-color="white"/>
<stop offset="0.71" stop-color="#FBFBFB"/>
<stop offset="0.83" stop-color="#EFEFEF"/>
<stop offset="0.94" stop-color="#DBDBDB"/>
<stop offset="1" stop-color="#CFCFCF"/>
</radialGradient>
<clipPath id="clip0_192_3792">
<rect width="27" height="27" fill="white" transform="translate(13 12)"/>
</clipPath>
</defs>
</svg>
